<svg xmlns="http://www.w3.org/2000/svg" width="249" height="256" fill="none" viewBox="0 0 249 256">
  <g clip-path="url(#a)">
    <path fill="#fff" stroke="#9FB05D" stroke-miterlimit="10" stroke-width="2.826" d="M57.805 48.405H17.068a6.25 6.25 0 0 0-6.25 6.25v91.775a6.25 6.25 0 0 0 6.25 6.251h40.737a6.251 6.251 0 0 0 6.25-6.251V54.655a6.25 6.25 0 0 0-6.25-6.25Z"/>
    <path fill="#9FB05D" d="M47.315 48.405H27.566c-.96 0-1.74.779-1.74 1.74v1.87c0 .96.78 1.74 1.74 1.74h19.75c.96 0 1.74-.78 1.74-1.74v-1.87c0-.961-.78-1.74-1.74-1.74Z"/>
    <path fill="#F4EACD" d="M47.622 91.585h-26.19c-.697 0-1.263.566-1.263 1.264v7.038c0 .698.566 1.264 1.264 1.264h26.189c.698 0 1.264-.566 1.264-1.264V92.85c0-.698-.566-1.264-1.264-1.264Zm2.213 13.903H20.746a.577.577 0 0 0-.577.577v.795c0 .319.258.578.577.578h29.089a.578.578 0 0 0 .577-.578v-.795a.577.577 0 0 0-.577-.577Zm-10.195 3.141H20.636a.468.468 0 0 0-.468.468v1.014c0 .258.21.468.468.468H39.64c.259 0 .469-.21.469-.468v-1.014a.468.468 0 0 0-.469-.468Zm5.167 3.142H20.694a.525.525 0 0 0-.525.524v.901c0 .29.235.525.525.525h24.113c.29 0 .526-.235.526-.525v-.901a.525.525 0 0 0-.526-.524Zm-14.378 3.141h-9.917a.343.343 0 0 0-.343.343v1.264c0 .189.154.343.343.343h9.917c.19 0 .343-.154.343-.343v-1.264a.343.343 0 0 0-.343-.343Z"/>
    <path fill="#fff" stroke="#596334" stroke-miterlimit="10" stroke-width="2.826" d="M209.735 116.708H48.328a8.823 8.823 0 0 0-8.822 8.823v102.806a8.823 8.823 0 0 0 8.822 8.823h161.407a8.823 8.823 0 0 0 8.823-8.823V125.531a8.823 8.823 0 0 0-8.823-8.823Z"/>
    <path fill="#596334" d="M138.904 116.636h-19.749a1.74 1.74 0 0 0-1.74 1.74v1.87c0 .961.779 1.74 1.74 1.74h19.749a1.74 1.74 0 0 0 1.74-1.74v-1.87a1.74 1.74 0 0 0-1.74-1.74Z"/>
    <path fill="#fff" stroke="#9FB05D" stroke-miterlimit="10" stroke-width="2.826" d="M224.384 15.4h-108.18a5.916 5.916 0 0 0-5.916 5.915V90.22a5.916 5.916 0 0 0 5.916 5.915h108.18a5.916 5.916 0 0 0 5.916-5.915V21.315a5.916 5.916 0 0 0-5.916-5.915Z"/>
    <path fill="#fff" stroke="#596334" stroke-miterlimit="10" stroke-width="2.826" d="M227.736 252.564H30.328c-2.487 0-3.347-1.301-1.958-2.867l9.13-10.276c1.118-1.26 3.754-2.262 5.915-2.262h171.238c2.156 0 4.793 1.002 5.916 2.262l9.129 10.276c1.389 1.566.529 2.867-1.958 2.867h-.004Z"/>
    <path fill="#596334" d="M204.991 243.305H53.073c-1.914 0-3.242-.218-2.972-.484l1.938-1.894c.259-.251 1.959-.452 3.804-.452h146.374c1.845 0 3.545.201 3.803.452l1.939 1.894c.27.266-1.058.484-2.972.484h.004Zm21.456 9.868H31.616c-2.455 0-4.159.218-3.808.485l2.488 1.894c.33.25 2.511.452 4.877.452h187.721c2.366 0 4.547-.202 4.878-.452l2.487-1.894c.351-.267-1.357-.485-3.807-.485h-.005Z"/>
    <path fill="#DFED98" d="M164.245 248.708H93.818c-.888 0-1.365-.291-1.07-.646l2.015-2.431c.258-.311 1.122-.561 1.938-.561h64.665c.816 0 1.68.25 1.938.561l2.015 2.431c.295.355-.185.646-1.07.646h-.004Z"/>
    <path fill="#A41D00" d="M199.007 29.759c8.217 0 14.879-6.662 14.879-14.88C213.886 6.662 207.224 0 199.007 0c-8.218 0-14.88 6.662-14.88 14.88 0 8.217 6.662 14.879 14.88 14.879Z"/>
    <path stroke="#fff" stroke-linecap="round" stroke-linejoin="round" stroke-width="2.621" d="m203.961 9.925-9.913 9.913m9.913 0-9.913-9.913"/>
    <path fill="#F4EACD" d="M207.034 57.155h-84.297a.973.973 0 0 0-.973.973v.004c0 .537.435.973.973.973h84.297a.973.973 0 0 0 .973-.973v-.004a.973.973 0 0 0-.973-.973Zm-29.198 3.141h-55.281a.791.791 0 0 0-.791.792v.367c0 .437.354.792.791.792h55.281a.791.791 0 0 0 .792-.792v-.367a.791.791 0 0 0-.792-.792Zm14.803 3.146h-69.987a.888.888 0 0 0-.888.888v.174c0 .49.397.888.888.888h69.987a.888.888 0 0 0 .888-.888v-.174a.888.888 0 0 0-.888-.888Zm-41.21 3.141h-29.088a.577.577 0 0 0-.577.578v.795c0 .319.258.578.577.578h29.088a.578.578 0 0 0 .578-.578v-.795a.578.578 0 0 0-.578-.578Zm10.272-26.673h-38.213c-.952 0-1.724.771-1.724 1.724v8.798c0 .952.772 1.724 1.724 1.724h38.213c.953 0 1.725-.772 1.725-1.724v-8.798c0-.953-.772-1.725-1.725-1.725Z"/>
    <path fill="#A41D00" d="M63.934 93.693c8.218 0 14.88-6.662 14.88-14.88 0-8.217-6.662-14.879-14.88-14.879-8.217 0-14.879 6.662-14.879 14.88 0 8.217 6.662 14.879 14.88 14.879Z"/>
    <path stroke="#fff" stroke-linecap="round" stroke-linejoin="round" stroke-width="2.621" d="m68.889 73.855-9.913 9.917m9.913 0-9.913-9.917"/>
    <path fill="#F4EACD" d="M208.201 39.91h-37.802c-.948 0-1.716.768-1.716 1.716v8.814c0 .948.768 1.716 1.716 1.716h37.802c.947 0 1.716-.768 1.716-1.716v-8.814c0-.948-.769-1.717-1.716-1.717Z"/>
    <path fill="#DFED98" d="M83.263 127.433h-30.55a5.083 5.083 0 0 0-5.083 5.083v89.651a5.084 5.084 0 0 0 5.084 5.084h30.55a5.084 5.084 0 0 0 5.083-5.084v-89.651a5.083 5.083 0 0 0-5.084-5.083Zm121.8 0h-26.189c-.698 0-1.264.565-1.264 1.263v7.038c0 .698.566 1.264 1.264 1.264h26.189c.698 0 1.264-.566 1.264-1.264v-7.038c0-.698-.566-1.263-1.264-1.263Zm-2.669 42.95H93.915a1.254 1.254 0 1 0 0 2.507h108.479a1.255 1.255 0 1 0 0-2.507Zm-37.571 4.045H93.677c-.562 0-1.018.456-1.018 1.018v.472c0 .562.456 1.018 1.018 1.018h71.146c.562 0 1.017-.456 1.017-1.018v-.472c0-.562-.455-1.018-1.017-1.018Zm19.046 4.042H93.802c-.631 0-1.143.512-1.143 1.143v.222c0 .631.512 1.143 1.143 1.143h90.067c.631 0 1.143-.512 1.143-1.143v-.222c0-.631-.512-1.143-1.143-1.143Zm-53.032 4.046H93.402a.743.743 0 0 0-.743.743v1.022c0 .41.333.743.743.743h37.435c.41 0 .743-.333.743-.743v-1.022a.743.743 0 0 0-.743-.743Zm13.215-34.329H94.88a2.22 2.22 0 0 0-2.22 2.221v11.318a2.22 2.22 0 0 0 2.22 2.221h49.172a2.221 2.221 0 0 0 2.221-2.221v-11.318a2.22 2.22 0 0 0-2.221-2.221Zm59.848 0h-48.647c-1.22 0-2.209.989-2.209 2.209v11.342c0 1.22.989 2.209 2.209 2.209H203.9c1.22 0 2.209-.989 2.209-2.209v-11.342c0-1.22-.989-2.209-2.209-2.209Zm-4.809 42.417H97.803a4.87 4.87 0 0 0-4.87 4.869v26.912a4.87 4.87 0 0 0 4.87 4.87h101.288a4.87 4.87 0 0 0 4.87-4.87v-26.912a4.87 4.87 0 0 0-4.87-4.869Z"/>
    <path stroke="#596334" stroke-linecap="round" stroke-miterlimit="10" stroke-width="3.634" d="M21.275 122.62s-33.764 19.486-12.34 47.989c14.702 19.555 43.75 23.387 43.75 23.387M220.136 72.075s40.613 10.966 21.494 52.81c-12.465 27.287-35.521 41.153-35.521 41.153"/>
    <path stroke="#596334" stroke-linecap="round" stroke-linejoin="round" stroke-width="3.634" d="m48.127 184.898 6.177 9.396-9.396 6.182m160.499-42.958-1.757 11.108 11.108 1.757"/>
  </g>
  <defs>
    <clipPath id="a">
      <path fill="#fff" d="M0 0h248.562v256H0z"/>
    </clipPath>
  </defs>
</svg>
